<svg width="24" height="24" viewBox="0 0 24 24" fill="none" xmlns="http://www.w3.org/2000/svg">
<rect width="24" height="24" rx="12" fill="#65B32E"/>
<path d="M12.0004 19.0019C10.573 19.0018 9.17339 18.6018 7.95626 17.8461C6.73912 17.0903 5.75179 16.0084 5.10336 14.7196C5.04204 14.5987 5.00713 14.4657 5.00098 14.3299C4.99483 14.194 5.0176 14.0584 5.06773 13.9322C5.11786 13.8061 5.19418 13.6923 5.29152 13.5987C5.38885 13.5051 5.50492 13.4338 5.63185 13.3896C5.84435 13.314 6.07669 13.3189 6.28589 13.4034C6.49508 13.488 6.66698 13.6465 6.76977 13.8496C7.26051 14.8308 8.0099 15.6549 8.93477 16.2306C9.85964 16.8064 10.9238 17.1111 12.0092 17.1111C13.0946 17.1111 14.1588 16.8064 15.0837 16.2306C16.0085 15.6549 16.7579 14.8308 17.2487 13.8496C17.3513 13.6463 17.5231 13.4877 17.7324 13.4031C17.9417 13.3185 18.1741 13.3137 18.3866 13.3896C18.5131 13.4343 18.6286 13.506 18.7254 13.5999C18.8222 13.6937 18.898 13.8075 18.9477 13.9335C18.9975 14.0596 19.0199 14.195 19.0137 14.3306C19.0074 14.4662 18.9725 14.5989 18.9113 14.7196C18.2618 16.0105 17.2723 17.0939 16.0525 17.8497C14.8326 18.6056 13.4301 19.0044 12.0004 19.0019Z" fill="white"/>
<path d="M15.5397 11.1871C15.5397 13.0732 13.9972 14.3905 12.0539 14.3905C10.7453 14.3905 9.67063 13.8036 9.00812 12.8964C8.90576 12.7452 8.84868 12.5672 8.84375 12.3839C8.84575 12.1526 8.93822 11.9317 9.10084 11.7695C9.26347 11.6074 9.48295 11.5172 9.71109 11.5189C9.82777 11.5171 9.94349 11.5405 10.0505 11.5875C10.1576 11.6346 10.2535 11.7043 10.3319 11.7919C10.7731 12.3223 11.2827 12.644 11.9983 12.644C12.9503 12.644 13.6255 12.0853 13.6255 11.2191C13.6255 10.3529 12.9933 9.89289 11.7644 9.89289H10.5797C10.4558 9.89625 10.3325 9.87398 10.2173 9.82745C10.1021 9.78092 9.99753 9.7111 9.90986 9.62226C9.8222 9.53341 9.75331 9.4274 9.7074 9.31069C9.66148 9.19398 9.63951 9.06901 9.64282 8.94341V5.95016C9.63951 5.82456 9.66148 5.69959 9.7074 5.58288C9.75331 5.46617 9.8222 5.36016 9.90986 5.27131C9.99753 5.18247 10.1021 5.11265 10.2173 5.06612C10.3325 5.01959 10.4558 4.99733 10.5797 5.00068H14.2172C14.3295 4.99609 14.4415 5.01488 14.5463 5.0559C14.6512 5.09691 14.7466 5.15928 14.8267 5.23913C14.9068 5.31899 14.9699 5.41465 15.012 5.5202C15.0542 5.62574 15.0746 5.73893 15.0719 5.85278C15.0733 5.96627 15.0521 6.07888 15.0095 6.18384C14.9668 6.28879 14.9037 6.38393 14.8239 6.46352C14.744 6.54312 14.6491 6.60553 14.5449 6.64701C14.4406 6.68849 14.3292 6.70817 14.2172 6.70488H11.4357V8.26814H12.3865C14.1034 8.26814 15.5397 9.38548 15.5397 11.1871Z" fill="white"/>
</svg>
