<svg width="24" height="24" viewBox="0 0 24 24" fill="none" xmlns="http://www.w3.org/2000/svg">
<rect width="24" height="24" rx="12" fill="#E80096"/>
<path d="M18.4485 6.06132C18.5885 5.97871 18.6445 5.84101 18.6445 5.67578C18.8685 5.7584 18.9806 5.86855 19.0926 5.97871C19.6806 6.80488 19.2326 7.93397 18.2245 8.12674C17.8605 8.18182 17.4965 8.18182 17.1324 8.12674C16.2924 7.96151 15.4803 7.65858 14.6683 7.41073C13.1842 6.94257 11.7001 6.7498 10.16 7.05273C8.95593 7.30058 7.94787 7.85136 7.21982 8.8703C6.8838 9.33846 6.65979 9.8617 6.63178 10.44C6.63178 10.5777 6.63178 10.6879 6.79979 10.7154C6.9118 10.7429 6.99581 10.6603 7.02381 10.5226C7.02381 10.44 7.05181 10.3574 7.10781 10.2748C7.86386 8.84276 9.09594 8.15428 10.692 7.93397C10.86 7.93397 10.832 8.01659 10.832 8.12674C10.832 9.31092 10.86 10.4951 10.748 11.6517C10.636 12.891 10.44 14.1027 10.02 15.2593C9.79598 15.8927 9.51596 16.4986 8.98393 16.9667C8.5079 17.3523 8.00387 17.5175 7.38783 17.2697C7.07981 17.132 6.9398 16.8291 7.10781 16.5261C7.16382 16.416 7.21982 16.3058 7.35983 16.471C7.44383 16.5812 7.61184 16.5812 7.75185 16.5261C7.89186 16.471 7.94787 16.3334 7.94787 16.1957C7.94787 16.0304 7.86386 15.9203 7.72385 15.8652C7.61185 15.8101 7.47184 15.8376 7.33183 15.8652C6.60378 16.0855 6.35177 17.0218 6.8838 17.5726C7.13582 17.8205 7.41583 17.9581 7.77986 17.9857C8.5079 18.0683 9.12394 17.7929 9.71198 17.4074C10.524 16.8291 10.9441 16.0304 11.2521 15.1492C11.7561 13.6896 11.8961 12.2025 11.9521 10.6879C11.9801 9.8617 11.9801 9.00799 11.9801 8.18182C11.9801 7.98905 12.0081 7.90643 12.2321 7.93397C12.4281 7.98905 12.5962 7.98905 12.7922 7.98905H12.7922C12.9882 7.98905 13.0162 8.04413 13.0162 8.2369C13.0162 9.61385 13.0722 10.9633 13.1842 12.3402C13.2682 13.2765 13.4362 14.1853 13.8002 15.039C13.8842 15.2593 14.0242 15.4796 14.1923 15.6449C14.5283 15.9753 14.9483 16.0855 15.3963 16.058C15.5083 16.058 15.6203 16.0029 15.6203 15.8652C15.6203 15.755 15.5643 15.6724 15.4523 15.6449C14.9763 15.5898 14.7803 15.2593 14.6123 14.8738C14.4443 14.4056 14.3323 13.8824 14.2763 13.3867C14.0522 11.7343 14.0802 10.0545 14.0802 8.40213C14.0802 8.26444 14.1363 8.26444 14.2483 8.29198C14.8923 8.48475 15.5643 8.67752 16.2364 8.84276C16.9924 9.00799 17.7205 9.09061 18.4765 8.81522C19.7926 8.3746 20.2126 6.97011 19.3446 5.92363C19.0646 5.59316 18.7005 5.40039 18.2525 5.40039C18.0845 5.40039 17.9725 5.48301 17.9165 5.64824C17.8885 5.7584 17.9165 5.89609 18.0285 6.00625C18.1405 6.1164 18.3085 6.14394 18.4485 6.06132Z" fill="white"/>
</svg>
