<svg width="24" height="24" viewBox="0 0 24 24" fill="none" xmlns="http://www.w3.org/2000/svg">
<rect width="24" height="24" rx="12" fill="#0055A5"/>
<path d="M17.3639 9.2684C17.3571 9.42954 17.3469 9.58368 17.3435 9.73432C17.3299 10.1617 17.3129 10.5891 17.3061 11.0165C17.3027 11.1076 17.2824 11.1461 17.1873 11.1391C17.0209 11.1321 16.8545 11.1356 16.6882 11.1391C16.6237 11.1391 16.6033 11.1181 16.6067 11.0515C16.6237 10.5821 16.6406 10.1162 16.6542 9.64674C16.6678 9.20885 16.6814 8.77095 16.6984 8.33656C16.7085 7.99675 16.7187 7.65694 16.7323 7.31363C16.7629 7.31013 16.7832 7.30663 16.8036 7.30663C17.1499 7.30663 17.4929 7.29962 17.8392 7.31013C18.1516 7.31714 18.4266 7.41873 18.6168 7.69898C18.722 7.85312 18.7594 8.03178 18.7797 8.21745C18.8375 8.77095 18.8986 9.32795 18.9597 9.88145C19.0005 10.2668 19.048 10.6486 19.0887 11.034C19.0921 11.0655 19.0887 11.0935 19.0887 11.1391H18.5862C18.3995 11.1391 18.3995 11.1391 18.3791 10.9499C18.3214 10.4139 18.267 9.87795 18.2127 9.34197C18.2093 9.29642 18.1991 9.2684 18.1448 9.2684C17.8834 9.2719 17.6287 9.2684 17.3639 9.2684ZM17.3876 8.61681H18.1041C18.0735 8.03879 17.9003 7.90217 17.3876 7.96873V8.61681ZM4.81436 7.31363H7.0146C7.01799 7.34867 7.02139 7.3872 7.02139 7.42223C7.02139 8.62031 7.02139 9.8219 7.02479 11.02C7.02479 11.1146 6.99762 11.1426 6.90595 11.1391C6.75315 11.1321 6.59696 11.1321 6.44417 11.1391C6.3491 11.1426 6.32872 11.1076 6.32872 11.0165C6.33212 10.0356 6.33212 9.05471 6.33212 8.07382V7.95822H5.50363V11.006C5.50363 11.1356 5.50363 11.1356 5.3814 11.1356H4.88227C4.83134 11.1356 4.80757 11.1181 4.80757 11.062C4.80757 9.8254 4.80757 8.58879 4.81097 7.35217C4.80757 7.34166 4.81097 7.33465 4.81436 7.31363ZM10.3353 9.18783C10.3251 9.62222 10.2776 10.0496 10.1044 10.449C9.9822 10.7327 9.81582 10.9779 9.534 11.1146C9.07562 11.3388 8.55273 11.1811 8.2777 10.7397C8.09774 10.4525 8.01625 10.1302 7.9755 9.79738C7.92118 9.36999 7.92118 8.94611 7.99248 8.51872C8.04341 8.21395 8.13848 7.93019 8.30147 7.66745C8.69533 7.03338 9.52382 7.07542 9.91429 7.6079C10.1316 7.90567 10.2403 8.24548 10.2912 8.6098C10.3116 8.80248 10.3183 8.99515 10.3353 9.18783ZM8.59687 9.27891C8.61045 9.41553 8.62063 9.63623 8.65459 9.85343C8.68515 10.0566 8.73608 10.2563 8.86511 10.4244C8.99413 10.5926 9.21144 10.6031 9.34386 10.435C9.40837 10.3544 9.4627 10.2528 9.49326 10.1512C9.66303 9.58368 9.65964 9.00566 9.55438 8.43114C9.52721 8.28401 9.4661 8.13688 9.388 8.01427C9.25218 7.80408 8.98395 7.81459 8.84473 8.02127C8.7938 8.09834 8.75645 8.18592 8.72589 8.27C8.62064 8.56777 8.61045 8.88305 8.59687 9.27891ZM14.2095 12.8732H14.7562C14.8173 12.8732 14.8105 12.9187 14.8105 12.9607V14.1938C15.2825 13.6859 15.7374 13.1989 16.1924 12.7085C16.1992 12.7085 16.2094 12.712 16.2162 12.712C16.2637 14.0327 16.3113 15.3499 16.3622 16.6846C16.1653 16.6846 15.9785 16.6881 15.7918 16.6811C15.7748 16.6811 15.7442 16.632 15.7408 16.604C15.7307 16.4113 15.7239 16.2187 15.7171 16.0225C15.6967 15.4375 15.6763 14.8559 15.6594 14.2709C15.6594 14.2534 15.656 14.2359 15.656 14.2044C15.6254 14.2324 15.605 14.2499 15.588 14.2709C15.3436 14.5372 15.0991 14.7999 14.8614 15.0696C14.8343 15.1012 14.8139 15.1572 14.8139 15.2028C14.8105 15.6617 14.8105 16.1206 14.8139 16.5795C14.8139 16.6671 14.7867 16.6916 14.7052 16.6916C14.5626 16.6846 14.42 16.6881 14.2774 16.6916C14.2265 16.6916 14.1993 16.6811 14.1993 16.618C14.1993 15.3884 14.1993 14.1553 14.2027 12.9257C14.2027 12.9082 14.2061 12.9012 14.2095 12.8732ZM17.0481 12.8732C17.2348 12.8732 17.4182 12.8696 17.6015 12.8767C17.6185 12.8767 17.6457 12.9362 17.6457 12.9642C17.6491 13.3286 17.6491 13.6964 17.6491 14.0607V14.1903C18.121 13.6824 18.576 13.1919 19.0344 12.7015C19.0412 12.705 19.0514 12.7085 19.0582 12.7085C19.1057 14.0257 19.1532 15.3429 19.2008 16.6706H18.5794C18.5523 15.8508 18.5217 15.0346 18.4945 14.2149C18.4843 14.2079 18.4742 14.2008 18.4606 14.1903C18.447 14.2184 18.4334 14.2464 18.4164 14.2709C18.1788 14.5336 17.9377 14.7929 17.7034 15.0591C17.6728 15.0942 17.6525 15.1502 17.6525 15.1993C17.6491 15.6582 17.6491 16.1171 17.6525 16.576C17.6525 16.6601 17.6287 16.6846 17.5506 16.6811C17.3876 16.6741 17.2246 16.6776 17.0515 16.6776C17.0481 15.4094 17.0481 14.1483 17.0481 12.8732ZM9.04846 14.6598C9.03488 15.1957 9.00432 15.6371 8.82776 16.0505C8.76664 16.1906 8.68854 16.3308 8.59347 16.4464C8.22677 16.8948 7.60201 16.8597 7.27944 16.3763C7.10628 16.1171 7.02478 15.8193 6.98064 15.511C6.89576 14.9155 6.89576 14.3235 7.04516 13.7384C7.10288 13.5142 7.19116 13.3005 7.33037 13.1149C7.66992 12.663 8.28109 12.6665 8.62743 13.1149C8.84473 13.3951 8.9432 13.7244 8.99413 14.0677C9.02809 14.2919 9.03827 14.5231 9.04846 14.6598ZM8.45086 14.7473C8.44407 14.7473 8.43728 14.7438 8.43049 14.7438C8.4237 14.5757 8.41351 14.4075 8.40672 14.2394C8.40333 14.1868 8.39654 14.1343 8.38975 14.0817C8.35919 13.8961 8.32863 13.7104 8.21997 13.5528C8.08076 13.3496 7.84308 13.3496 7.72424 13.5633C7.65973 13.6824 7.61219 13.819 7.58163 13.9556C7.47977 14.4286 7.48317 14.9085 7.54768 15.3884C7.57484 15.5916 7.61898 15.7948 7.72764 15.9699C7.85666 16.1801 8.09095 16.1766 8.20979 15.9594C8.26412 15.8613 8.31165 15.7563 8.33202 15.6512C8.37956 15.3534 8.41351 15.0486 8.45086 14.7473ZM11.0585 7.31363H11.7512C11.7546 7.35217 11.7546 7.3872 11.7546 7.42574V8.30853C11.7546 8.4942 11.8361 8.59929 12.0127 8.62031C12.1621 8.63783 12.3149 8.63433 12.4643 8.63783C12.5288 8.64133 12.5254 8.59229 12.5254 8.55025V7.43625V7.32064H13.2146C13.218 7.35567 13.2248 7.3907 13.2248 7.42574C13.2248 8.62382 13.2248 9.8254 13.2282 11.0235C13.2282 11.1216 13.1977 11.1461 13.1094 11.1426C12.9566 11.1356 12.8004 11.1356 12.6476 11.1426C12.5593 11.1461 12.5288 11.1216 12.5288 11.0235C12.5356 10.484 12.5288 9.94101 12.5322 9.40152C12.5322 9.31044 12.505 9.28942 12.4201 9.28942C12.2164 9.28942 12.0127 9.29993 11.8123 9.2684C11.354 9.19483 11.0619 8.827 11.0619 8.35057C11.0586 8.00376 11.0585 7.66395 11.0585 7.31363ZM4.80418 12.8732C5.12335 12.8907 5.44252 12.8311 5.74811 12.9187C6.04351 13.0028 6.23026 13.2165 6.35249 13.4967C6.4917 13.8155 6.52905 14.1553 6.51208 14.5021C6.49849 14.7754 6.47133 15.0451 6.35589 15.2938C6.31514 15.3814 6.26081 15.469 6.1997 15.5461C6.01295 15.7703 5.73792 15.8053 5.49684 15.6442C5.47308 15.6301 5.4527 15.6126 5.41535 15.5916V16.6671H4.80078C4.80418 15.4059 4.80418 14.1448 4.80418 12.8732ZM5.38819 14.1133H5.39838C5.39838 14.3165 5.38479 14.5196 5.40177 14.7193C5.41196 14.8279 5.4561 14.9435 5.51043 15.0381C5.56815 15.1432 5.69717 15.1432 5.77187 15.0486C5.81941 14.9856 5.86015 14.905 5.87713 14.8244C5.93485 14.5827 5.91448 14.334 5.89071 14.0887C5.87374 13.9241 5.84318 13.763 5.7549 13.6193C5.69038 13.5142 5.60889 13.4407 5.47987 13.4267C5.41196 13.4196 5.38819 13.4407 5.38819 13.5107C5.39159 13.7139 5.38819 13.9136 5.38819 14.1133ZM13.6323 16.1241C13.6323 16.3343 13.6323 16.5375 13.6289 16.7406C13.6289 16.7582 13.5881 16.7932 13.5678 16.7932C12.6306 16.7932 11.9957 16.2012 11.8293 15.3184C11.7274 14.7824 11.7546 14.2534 11.9719 13.7489C12.2198 13.1779 12.668 12.8802 13.2622 12.8031C13.3776 12.7891 13.4965 12.7856 13.6289 12.7751V13.248C13.6289 13.4547 13.6289 13.4477 13.4286 13.4652C13.0483 13.5002 12.7461 13.6789 12.5865 14.0432C12.3726 14.5301 12.3692 15.0311 12.5967 15.518C12.7664 15.8789 13.0619 16.0645 13.4455 16.1031C13.5033 16.1101 13.561 16.1171 13.6323 16.1241ZM11.337 12.7786V13.4582C11.2487 13.4652 11.1638 13.4652 11.0823 13.4792C10.607 13.5563 10.3183 13.847 10.2097 14.3235C10.1112 14.7579 10.1214 15.1852 10.3455 15.5846C10.5255 15.9034 10.8005 16.075 11.157 16.1066C11.354 16.1241 11.354 16.1206 11.354 16.3273C11.354 16.4569 11.3506 16.583 11.354 16.7126C11.354 16.7757 11.337 16.8002 11.2691 16.8002C10.3285 16.7792 9.66982 16.1836 9.52721 15.2273C9.45251 14.7158 9.47968 14.2114 9.69699 13.7349C9.94825 13.1744 10.393 12.8837 10.9805 12.8101C11.0959 12.7891 11.2113 12.7856 11.337 12.7786ZM14.5864 7.95471H14.0295V7.31363H15.8461V7.95121H15.2825V8.08083C15.2825 9.05821 15.2825 10.0356 15.2859 11.0165C15.2859 11.1076 15.2655 11.1461 15.1704 11.1391C15.0142 11.1321 14.8546 11.1321 14.6984 11.1391C14.6034 11.1426 14.583 11.1076 14.583 11.0165C14.5864 10.0356 14.5864 9.05471 14.5864 8.07382V7.95471Z" fill="white"/>
</svg>
